<svg width="97" height="37" viewBox="0 0 97 37" fill="none" xmlns="http://www.w3.org/2000/svg">
<path d="M41.7784 16.1874C41.6655 16.1874 41.578 16.1566 41.5163 16.0949C41.4547 16.023 41.4238 15.9356 41.4238 15.8328V5.76575C41.4238 5.65271 41.4547 5.56534 41.5163 5.50367C41.578 5.43171 41.6655 5.39575 41.7784 5.39575H48.1455C48.2584 5.39575 48.3459 5.43171 48.4076 5.50367C48.4692 5.56534 48.5001 5.65271 48.5001 5.76575V6.35159C48.5001 6.46463 48.4692 6.552 48.4076 6.61367C48.3459 6.67534 48.2584 6.70617 48.1455 6.70617H42.9038V10.0824H47.8063C47.9193 10.0824 48.0067 10.1184 48.0684 10.1903C48.1301 10.252 48.1609 10.3394 48.1609 10.4524V11.0228C48.1609 11.1256 48.1301 11.213 48.0684 11.2849C48.0067 11.3466 47.9193 11.3774 47.8063 11.3774H42.9038V14.877H48.2688C48.3818 14.877 48.4692 14.9078 48.5309 14.9695C48.5926 15.0312 48.6234 15.1185 48.6234 15.2316V15.8328C48.6234 15.9356 48.5926 16.023 48.5309 16.0949C48.4692 16.1566 48.3818 16.1874 48.2688 16.1874H41.7784ZM52.3612 16.1874C52.2479 16.1874 52.1608 16.1566 52.0991 16.0949C52.0374 16.023 52.0066 15.9356 52.0066 15.8328V5.76575C52.0066 5.65271 52.0374 5.56534 52.0991 5.50367C52.1608 5.43171 52.2479 5.39575 52.3612 5.39575H53.0703C53.1937 5.39575 53.2862 5.42659 53.3478 5.48825C53.4095 5.53963 53.4454 5.58075 53.4558 5.61159L58.5741 13.4741V5.76575C58.5741 5.65271 58.6049 5.56534 58.6666 5.50367C58.7283 5.43171 58.8154 5.39575 58.9287 5.39575H59.6687C59.7816 5.39575 59.8691 5.43171 59.9308 5.50367C60.0025 5.56534 60.0387 5.65271 60.0387 5.76575V15.8174C60.0387 15.9202 60.0025 16.0075 59.9308 16.0795C59.8691 16.1515 59.7866 16.1874 59.6841 16.1874H58.9441C58.8308 16.1874 58.7437 16.1566 58.682 16.0949C58.6304 16.0333 58.5945 15.9921 58.5741 15.9716L53.4712 8.18617V15.8328C53.4712 15.9356 53.4349 16.023 53.3633 16.0949C53.3016 16.1566 53.2141 16.1874 53.1012 16.1874H52.3612ZM67.1199 15.6787C67.0174 15.6787 66.9299 15.6478 66.8579 15.5862C66.7962 15.5142 66.7654 15.4269 66.7654 15.3241V12.1174H63.6049C63.5024 12.1174 63.4149 12.0866 63.3429 12.0249C63.2812 11.953 63.2504 11.8656 63.2504 11.7628V11.2695C63.2504 11.1667 63.2812 11.0845 63.3429 11.0228C63.4149 10.9509 63.5024 10.9149 63.6049 10.9149H66.7654V7.80075C66.7654 7.69796 66.7962 7.61575 66.8579 7.55409C66.9299 7.48213 67.0174 7.44617 67.1199 7.44617H67.6595C67.7624 7.44617 67.8445 7.48213 67.9062 7.55409C67.9783 7.61575 68.0141 7.69796 68.0141 7.80075V10.9149H71.1899C71.2928 10.9149 71.3749 10.9509 71.4366 11.0228C71.5087 11.0845 71.5445 11.1667 71.5445 11.2695V11.7628C71.5445 11.8656 71.5087 11.953 71.4366 12.0249C71.3749 12.0866 71.2928 12.1174 71.1899 12.1174H68.0141V15.3241C68.0141 15.4269 67.9783 15.5142 67.9062 15.5862C67.8445 15.6478 67.7624 15.6787 67.6595 15.6787H67.1199ZM41.7784 31.6041C41.6655 31.6041 41.578 31.5733 41.5163 31.5116C41.4547 31.4396 41.4238 31.3523 41.4238 31.2495V21.1824C41.4238 21.0694 41.4547 20.982 41.5163 20.9203C41.578 20.8484 41.6655 20.8124 41.7784 20.8124H45.278C46.3367 20.8124 47.1897 20.9717 47.8372 21.2903C48.4847 21.609 48.9576 22.0817 49.2555 22.7087C49.5534 23.3253 49.7076 24.0859 49.718 24.9903C49.7284 25.4528 49.7334 25.8588 49.7334 26.2083C49.7334 26.5577 49.7284 26.9585 49.718 27.4108C49.6976 28.3563 49.538 29.1425 49.2401 29.7695C48.9522 30.3862 48.4897 30.8487 47.8526 31.157C47.2255 31.455 46.393 31.6041 45.3551 31.6041H41.7784ZM42.9347 30.2937H45.278C45.9872 30.2937 46.5526 30.196 46.9738 30.0008C47.3951 29.8055 47.6984 29.492 47.8834 29.0603C48.0788 28.6287 48.1813 28.0583 48.1917 27.3491C48.2122 27.0408 48.2226 26.7735 48.2226 26.5474C48.2226 26.311 48.2226 26.0798 48.2226 25.8537C48.2226 25.6173 48.2122 25.35 48.1917 25.052C48.1713 24.055 47.9347 23.3202 47.4826 22.8474C47.0305 22.3644 46.2697 22.1228 45.2009 22.1228H42.9347V30.2937ZM53.6408 31.6041C53.5278 31.6041 53.4403 31.5733 53.3787 31.5116C53.317 31.4396 53.2862 31.3523 53.2862 31.2495V21.1824C53.2862 21.0694 53.317 20.982 53.3787 20.9203C53.4403 20.8484 53.5278 20.8124 53.6408 20.8124H60.0078C60.1208 20.8124 60.2083 20.8484 60.2699 20.9203C60.3316 20.982 60.3624 21.0694 60.3624 21.1824V21.7683C60.3624 21.8813 60.3316 21.9687 60.2699 22.0303C60.2083 22.092 60.1208 22.1228 60.0078 22.1228H54.7662V25.4991H59.6687C59.7816 25.4991 59.8691 25.535 59.9308 25.607C59.9924 25.6687 60.0233 25.756 60.0233 25.8691V26.4395C60.0233 26.5423 59.9924 26.6296 59.9308 26.7016C59.8691 26.7633 59.7816 26.7941 59.6687 26.7941H54.7662V30.2937H60.1312C60.2441 30.2937 60.3316 30.3245 60.3933 30.3862C60.4549 30.4478 60.4858 30.5352 60.4858 30.6483V31.2495C60.4858 31.3523 60.4549 31.4396 60.3933 31.5116C60.3316 31.5733 60.2441 31.6041 60.1312 31.6041H53.6408ZM64.2235 31.6041C64.1106 31.6041 64.0231 31.5733 63.9614 31.5116C63.8998 31.4396 63.869 31.3523 63.869 31.2495V21.1824C63.869 21.0694 63.8998 20.982 63.9614 20.9203C64.0231 20.8484 64.1106 20.8124 64.2235 20.8124H68.1394C68.8998 20.8124 69.5577 20.9358 70.1127 21.1824C70.6781 21.4291 71.1148 21.7991 71.4231 22.2924C71.7314 22.7755 71.8856 23.3819 71.8856 24.1116C71.8856 24.8413 71.7314 25.4477 71.4231 25.9308C71.1148 26.4138 70.6781 26.7787 70.1127 27.0253C69.5577 27.272 68.8998 27.3953 68.1394 27.3953H65.4106V31.2495C65.4106 31.3523 65.3748 31.4396 65.3027 31.5116C65.241 31.5733 65.1535 31.6041 65.0406 31.6041H64.2235ZM65.3952 26.1003H68.0623C68.8227 26.1003 69.3931 25.9308 69.7735 25.5916C70.1539 25.2524 70.344 24.7591 70.344 24.1116C70.344 23.4744 70.159 22.981 69.789 22.6316C69.419 22.2821 68.8435 22.1074 68.0623 22.1074H65.3952V26.1003ZM77.7069 31.6041C77.604 31.6041 77.5169 31.5733 77.4449 31.5116C77.3832 31.4396 77.3524 31.3523 77.3524 31.2495V22.1845H74.3924C74.2895 22.1845 74.2024 22.1537 74.1303 22.092C74.0686 22.02 74.0378 21.9327 74.0378 21.8299V21.1824C74.0378 21.0694 74.0686 20.982 74.1303 20.9203C74.2024 20.8484 74.2895 20.8124 74.3924 20.8124H81.8232C81.9361 20.8124 82.0236 20.8484 82.0853 20.9203C82.1574 20.982 82.1932 21.0694 82.1932 21.1824V21.8299C82.1932 21.9327 82.1574 22.02 82.0853 22.092C82.0236 22.1537 81.9361 22.1845 81.8232 22.1845H78.8786V31.2495C78.8786 31.3523 78.8428 31.4396 78.7707 31.5116C78.709 31.5733 78.6215 31.6041 78.5086 31.6041H77.7069ZM85.5093 31.6041C85.3964 31.6041 85.3089 31.5733 85.2472 31.5116C85.1856 31.4396 85.1547 31.3523 85.1547 31.2495V21.1824C85.1547 21.0694 85.1856 20.982 85.2472 20.9203C85.3089 20.8484 85.3964 20.8124 85.5093 20.8124H86.2956C86.4085 20.8124 86.496 20.8484 86.5577 20.9203C86.6297 20.982 86.6656 21.0694 86.6656 21.1824V25.4374H91.9689V21.1824C91.9689 21.0694 91.9997 20.982 92.0614 20.9203C92.1335 20.8484 92.2206 20.8124 92.3235 20.8124H93.1097C93.2227 20.8124 93.3102 20.8484 93.3718 20.9203C93.4439 20.982 93.4797 21.0694 93.4797 21.1824V31.2495C93.4797 31.3523 93.4439 31.4396 93.3718 31.5116C93.3102 31.5733 93.2227 31.6041 93.1097 31.6041H92.3235C92.2206 31.6041 92.1335 31.5733 92.0614 31.5116C91.9997 31.4396 91.9689 31.3523 91.9689 31.2495V26.8249H86.6656V31.2495C86.6656 31.3523 86.6297 31.4396 86.5577 31.5116C86.496 31.5733 86.4085 31.6041 86.2956 31.6041H85.5093Z" fill="#1B212B"/>
<path d="M34.1094 2.89062H2.89062V34.1094H34.1094V2.89062Z" stroke="#1B212B" stroke-width="1.5"/>
<path d="M33.9698 7.80795L7.80859 3.03101L3.03165 29.1922L29.1929 33.9691L33.9698 7.80795Z" stroke="#1B212B"/>
<path d="M33 12.3936L12.3945 4.21924L4.22017 24.8247L24.8257 32.9991L33 12.3936Z" stroke="#1B212B"/>
<path d="M30.7948 17.1298L17.1289 6.42261L6.42169 20.0885L20.0876 30.7958L30.7948 17.1298Z" stroke="#1B212B"/>
<path d="M27.3521 20.8276L20.8281 9.8667L9.8672 16.3907L16.3912 27.3516L27.3521 20.8276Z" stroke="#1B212B"/>
<path d="M24.2586 22.229L22.2285 12.9595L12.959 14.9896L14.9891 24.2591L24.2586 22.229Z" stroke="#1B212B"/>
<path d="M21.3433 22.5214L22.4629 15.7935L15.8738 14.697L14.7542 21.4249L21.3433 22.5214Z" stroke="#1B212B"/>
<path d="M18.5818 21.8247L21.8242 18.5647L18.6362 15.3939L15.3938 18.6539L18.5818 21.8247Z" stroke="#1B212B"/>
</svg>
